# xmcd
#
# Track frame offsets:
#	150
#	11221
#	38168
#	59774
#	84233
#	119120
#	141465
#
# Disc length: 2320 seconds
#
# Revision: 1
# Processed by: cddbd v1.5PL3 Copyright (c) Steve Scherf et al.
# Submitted via: audiograbber 1.82.01
#
DISCID=67090e07
DTITLE=Jeff Beck Group - 1968-07-24 - Fillmore West
DYEAR=1900
DGENRE=
TTITLE0=Jeff Beck Group - You Shook Me
TTITLE1=Jeff Beck Group - Let Me Love You Baby
TTITLE2=Jeff Beck Group - Morning Dew
TTITLE3=Jeff Beck Group - Jeff's Boogie
TTITLE4=Jeff Beck Group - Blues DeLuxe
TTITLE5=Jeff Beck Group - Hi Ho Silver Lining
TTITLE6=Jeff Beck Group - The Sun Is Shining
EXTD=
EXTT0=
EXTT1=
EXTT2=
EXTT3=
EXTT4=
EXTT5=
EXTT6=
PLAYORDER=
